<svg width="110" height="27" viewBox="0 0 110 27" fill="none" xmlns="http://www.w3.org/2000/svg">
<path d="M4.73702 7.716V14.814C4.73702 16.7727 4.66768 18.0467 4.52902 18.636C4.77168 18.636 5.58635 18.6533 6.97302 18.688C8.37702 18.7053 9.21768 18.714 9.49502 18.714C10.899 18.714 12.095 18.09 13.083 16.842C14.0883 15.594 14.6863 14.2333 14.877 12.76L15.137 10.394C15.137 10.342 15.163 10.3073 15.215 10.29C15.267 10.2727 15.3103 10.2813 15.345 10.316C15.397 10.3333 15.423 10.368 15.423 10.42L15.163 12.812C14.747 16.6947 14.461 18.7053 14.305 18.844C14.201 18.948 13.0484 19 10.847 19L4.37302 18.922L0.707016 19C0.603016 19 0.542349 18.974 0.525016 18.922C0.577016 18.87 0.637682 18.8353 0.707016 18.818C1.26168 18.818 1.64302 18.7573 1.85102 18.636C2.07635 18.4973 2.24968 18.2027 2.37102 17.752C2.49235 17.284 2.58768 16.4867 2.65702 15.36C2.69168 14.8227 2.70902 14.1207 2.70902 13.254C2.72635 12.3873 2.72635 11.46 2.70902 10.472C2.69168 9.484 2.68302 8.92067 2.68302 8.782C2.68302 8.40067 2.66568 7.56867 2.63102 6.286C2.61368 4.986 2.60502 4.08467 2.60502 3.582C2.60502 2.42067 2.52702 1.736 2.37102 1.528C2.21502 1.32 1.72102 1.216 0.889016 1.216C0.785016 1.216 0.733016 1.18133 0.733016 1.112C0.733016 1.02533 0.785016 0.982 0.889016 0.982C0.941016 0.982 1.44368 0.990666 2.39702 1.008C3.36768 1.02533 3.92235 1.034 4.06102 1.034C4.16502 1.034 4.65035 1.02533 5.51702 1.008C6.40102 0.990666 6.98168 0.982 7.25902 0.982C7.36302 0.982 7.41502 1.02533 7.41502 1.112C7.41502 1.18133 7.36302 1.216 7.25902 1.216H6.53102C5.64702 1.216 5.12702 1.502 4.97102 2.074C4.81502 2.646 4.73702 4.52667 4.73702 7.716ZM23.7987 19.26C21.84 19.26 20.2627 18.6793 19.0667 17.518C17.8707 16.3393 17.2727 14.84 17.2727 13.02C17.2727 11.096 18.018 9.406 19.5087 7.95C21.0167 6.47667 22.6807 5.74 24.5007 5.74C25.3847 5.74 26.1473 5.87 26.7887 6.13C27.4473 6.37267 27.9327 6.68467 28.2447 7.066C28.5567 7.43 28.7733 7.80267 28.8947 8.184C29.016 8.56533 29.0593 8.92067 29.0247 9.25C28.9553 9.78733 28.5913 10.056 27.9327 10.056H19.0407C18.902 10.6973 18.8327 11.3647 18.8327 12.058C18.8327 13.6527 19.4393 15.0047 20.6527 16.114C21.8833 17.206 23.374 17.752 25.1247 17.752C26.6327 17.752 27.9067 17.3273 28.9467 16.478C29.9867 15.6113 30.888 14.3547 31.6507 12.708C31.72 12.5173 31.7893 12.4567 31.8587 12.526C31.8933 12.5607 31.8847 12.6387 31.8327 12.76C31.0527 14.58 29.9693 16.1227 28.5827 17.388C27.2133 18.636 25.6187 19.26 23.7987 19.26ZM25.4887 9.744C26.026 9.744 26.3727 9.666 26.5287 9.51C26.6847 9.31933 26.7627 9.042 26.7627 8.678C26.7627 8.106 26.494 7.56867 25.9567 7.066C25.4193 6.56333 24.6913 6.312 23.7727 6.312C22.6287 6.312 21.6407 6.61533 20.8087 7.222C19.994 7.82867 19.422 8.704 19.0927 9.848C20.1673 9.848 21.3893 9.83067 22.7587 9.796C24.128 9.76133 25.038 9.744 25.4887 9.744ZM42.2644 7.716V14.814C42.2644 16.7727 42.195 18.0467 42.0564 18.636C42.299 18.636 43.1137 18.6533 44.5004 18.688C45.9044 18.7053 46.745 18.714 47.0224 18.714C48.4264 18.714 49.6224 18.09 50.6104 16.842C51.6157 15.594 52.2137 14.2333 52.4044 12.76L52.6644 10.394C52.6644 10.342 52.6904 10.3073 52.7424 10.29C52.7944 10.2727 52.8377 10.2813 52.8724 10.316C52.9244 10.3333 52.9504 10.368 52.9504 10.42L52.6904 12.812C52.2744 16.6947 51.9884 18.7053 51.8324 18.844C51.7284 18.948 50.5757 19 48.3744 19L41.9004 18.922L38.2344 19C38.1304 19 38.0697 18.974 38.0524 18.922C38.1044 18.87 38.165 18.8353 38.2344 18.818C38.789 18.818 39.1704 18.7573 39.3784 18.636C39.6037 18.4973 39.777 18.2027 39.8984 17.752C40.0197 17.284 40.115 16.4867 40.1844 15.36C40.219 14.8227 40.2364 14.1207 40.2364 13.254C40.2537 12.3873 40.2537 11.46 40.2364 10.472C40.219 9.484 40.2104 8.92067 40.2104 8.782C40.2104 8.40067 40.193 7.56867 40.1584 6.286C40.141 4.986 40.1324 4.08467 40.1324 3.582C40.1324 2.42067 40.0544 1.736 39.8984 1.528C39.7424 1.32 39.2484 1.216 38.4164 1.216C38.3124 1.216 38.2604 1.18133 38.2604 1.112C38.2604 1.02533 38.3124 0.982 38.4164 0.982C38.4684 0.982 38.971 0.990666 39.9244 1.008C40.895 1.02533 41.4497 1.034 41.5884 1.034C41.6924 1.034 42.1777 1.02533 43.0444 1.008C43.9284 0.990666 44.509 0.982 44.7864 0.982C44.8904 0.982 44.9424 1.02533 44.9424 1.112C44.9424 1.18133 44.8904 1.216 44.7864 1.216H44.0584C43.1744 1.216 42.6544 1.502 42.4984 2.074C42.3424 2.646 42.2644 4.52667 42.2644 7.716ZM61.326 19.26C59.3673 19.26 57.79 18.6793 56.594 17.518C55.398 16.3393 54.8 14.84 54.8 13.02C54.8 11.096 55.5453 9.406 57.036 7.95C58.544 6.47667 60.208 5.74 62.028 5.74C62.912 5.74 63.6747 5.87 64.316 6.13C64.9747 6.37267 65.46 6.68467 65.772 7.066C66.084 7.43 66.3007 7.80267 66.422 8.184C66.5433 8.56533 66.5867 8.92067 66.552 9.25C66.4827 9.78733 66.1187 10.056 65.46 10.056H56.568C56.4293 10.6973 56.36 11.3647 56.36 12.058C56.36 13.6527 56.9667 15.0047 58.18 16.114C59.4107 17.206 60.9013 17.752 62.652 17.752C64.16 17.752 65.434 17.3273 66.474 16.478C67.514 15.6113 68.4153 14.3547 69.178 12.708C69.2473 12.5173 69.3167 12.4567 69.386 12.526C69.4207 12.5607 69.412 12.6387 69.36 12.76C68.58 14.58 67.4967 16.1227 66.11 17.388C64.7407 18.636 63.146 19.26 61.326 19.26ZM63.016 9.744C63.5533 9.744 63.9 9.666 64.056 9.51C64.212 9.31933 64.29 9.042 64.29 8.678C64.29 8.106 64.0213 7.56867 63.484 7.066C62.9467 6.56333 62.2187 6.312 61.3 6.312C60.156 6.312 59.168 6.61533 58.336 7.222C57.5213 7.82867 56.9493 8.704 56.62 9.848C57.6947 9.848 58.9167 9.83067 60.286 9.796C61.6553 9.76133 62.5653 9.744 63.016 9.744ZM79.7931 6.416C79.6198 6.416 78.9091 6.338 77.6611 6.182C76.4131 6.026 75.4338 5.948 74.7231 5.948V6C76.0405 6.17333 77.0718 6.66733 77.8171 7.482C78.5625 8.27933 78.9351 9.26733 78.9351 10.446C78.9351 11.798 78.4151 12.8813 77.3751 13.696C76.3525 14.5107 75.0438 14.918 73.4491 14.918H72.9811C72.1145 14.97 71.3865 15.1173 70.7971 15.36C70.2078 15.6027 69.9131 15.9233 69.9131 16.322C69.9131 16.79 70.1731 17.0933 70.6931 17.232C71.2305 17.3707 72.1231 17.44 73.3711 17.44H76.8551C78.2418 17.44 79.2645 17.7087 79.9231 18.246C80.5991 18.7833 80.9371 19.4507 80.9371 20.248C80.9371 21.3227 80.4691 22.38 79.5331 23.42C78.6145 24.4773 77.4531 25.318 76.0491 25.942C74.6451 26.5833 73.2758 26.904 71.9411 26.904C70.6238 26.9213 69.5751 26.6093 68.7951 25.968C68.0325 25.344 67.6511 24.5553 67.6511 23.602C67.6511 22.666 68.0845 21.782 68.9511 20.95C69.8178 20.118 70.8318 19.494 71.9931 19.078C69.6878 18.9913 68.5351 18.4107 68.5351 17.336C68.5351 16.764 68.8818 16.244 69.5751 15.776C70.2858 15.2907 71.1698 14.97 72.2271 14.814C71.0831 14.606 70.1818 14.138 69.5231 13.41C68.8818 12.6647 68.5611 11.694 68.5611 10.498C68.5611 9.18067 69.0811 8.07133 70.1211 7.17C71.1785 6.25133 72.4698 5.792 73.9951 5.792C75.0005 5.792 76.2745 5.62733 77.8171 5.298C79.3598 4.96867 80.1571 4.804 80.2091 4.804C80.7118 4.804 80.9631 4.934 80.9631 5.194C80.9631 5.454 80.8505 5.72267 80.6251 6C80.3998 6.27733 80.1225 6.416 79.7931 6.416ZM73.5011 25.474H73.6051C75.3038 25.474 76.8205 25.0753 78.1551 24.278C79.5071 23.4807 80.1831 22.51 80.1831 21.366C80.1831 20.5513 79.8451 19.9707 79.1691 19.624C78.5105 19.2773 77.4358 19.104 75.9451 19.104H72.5651C71.4385 19.4507 70.5285 19.936 69.8351 20.56C69.1418 21.184 68.7951 21.86 68.7951 22.588C68.7951 23.5067 69.2025 24.2173 70.0171 24.72C70.8491 25.2227 72.0105 25.474 73.5011 25.474ZM73.7351 14.658C74.7925 14.658 75.5985 14.3027 76.1531 13.592C76.7251 12.864 77.0111 11.8153 77.0111 10.446C77.0111 9.26733 76.7251 8.24467 76.1531 7.378C75.5811 6.494 74.8098 6.052 73.8391 6.052C71.6205 6.052 70.5111 7.43867 70.5111 10.212C70.5111 11.5293 70.7885 12.604 71.3431 13.436C71.8978 14.2507 72.6951 14.658 73.7351 14.658ZM93.6239 11.018V16.452C93.6239 17.5093 93.7019 18.168 93.8579 18.428C94.0312 18.6707 94.3692 18.7833 94.8719 18.766C94.9759 18.766 95.0279 18.8093 95.0279 18.896C95.0279 18.9653 94.9759 19 94.8719 19C94.8199 19 94.4559 18.9913 93.7799 18.974C93.1212 18.9567 92.7139 18.948 92.5579 18.948C92.4539 18.948 92.1246 18.9567 91.5699 18.974C91.0326 18.9913 90.6252 19 90.3479 19C90.2439 19 90.1919 18.9653 90.1919 18.896C90.1919 18.8093 90.2439 18.766 90.3479 18.766C90.9026 18.766 91.2666 18.6273 91.4399 18.35C91.6132 18.0727 91.6999 17.388 91.6999 16.296L91.6739 10.758C91.6566 9.26733 91.3532 8.19267 90.7639 7.534C90.1746 6.858 89.4292 6.52 88.5279 6.52C87.7306 6.52 87.0286 6.71067 86.4219 7.092C85.8326 7.456 85.2259 8.054 84.6019 8.886V18.766H85.9539C86.0579 18.766 86.1099 18.8093 86.1099 18.896C86.1099 18.9653 86.0579 19 85.9539 19C85.9019 19 85.5986 18.9913 85.0439 18.974C84.4892 18.9567 84.1339 18.948 83.9779 18.948C83.8739 18.948 83.5012 18.9567 82.8599 18.974C82.2186 18.9913 81.7592 19 81.4819 19C81.3779 19 81.3259 18.9653 81.3259 18.896C81.3259 18.8093 81.3779 18.766 81.4819 18.766C82.0366 18.766 82.3659 18.6187 82.4699 18.324C82.5912 18.012 82.6519 17.206 82.6519 15.906V9.198C82.6519 8.60867 82.2532 7.95 81.4559 7.222C81.3866 7.15267 81.3866 7.10067 81.4559 7.066C82.3399 6.71933 82.9726 6.35533 83.3539 5.974C83.3886 5.922 83.4406 5.93067 83.5099 6C83.7699 6.26 84.0039 6.63267 84.2119 7.118C84.4372 7.586 84.5586 8.07133 84.5759 8.574C85.9972 6.68467 87.6006 5.74 89.3859 5.74C92.2112 5.74 93.6239 7.49933 93.6239 11.018ZM99.4095 19.286C98.4042 19.286 97.6155 19.0087 97.0435 18.454C96.4715 17.8993 96.1855 17.206 96.1855 16.374C96.1855 14.502 98.3522 12.7253 102.686 11.044L104.844 10.212C104.792 8.61733 104.549 7.51667 104.116 6.91C103.7 6.286 103.015 5.974 102.062 5.974C101.524 5.974 101.048 6.09533 100.632 6.338C100.233 6.58067 99.9382 6.832 99.7475 7.092C99.5742 7.33467 99.3748 7.67267 99.1495 8.106C98.9242 8.522 98.7768 8.77333 98.7075 8.86C98.4995 9.172 98.1095 9.328 97.5375 9.328C96.8442 9.328 96.4975 9.12867 96.4975 8.73C96.4975 8.29667 96.8008 7.88933 97.4075 7.508C98.0835 7.07467 98.8895 6.676 99.8255 6.312C100.762 5.93067 101.646 5.74 102.478 5.74C103.83 5.74 104.896 6.12133 105.676 6.884C106.473 7.64667 106.872 8.84267 106.872 10.472C106.872 11.1133 106.837 12.1533 106.768 13.592C106.698 15.0307 106.664 15.8887 106.664 16.166C106.664 17.6393 106.906 18.376 107.392 18.376C107.6 18.376 107.834 18.22 108.094 17.908C108.371 17.596 108.605 17.2753 108.796 16.946C108.83 16.8767 108.882 16.8507 108.952 16.868C109.038 16.868 109.09 16.9027 109.108 16.972C109.142 17.024 109.142 17.0847 109.108 17.154C108.83 17.5353 108.362 17.986 107.704 18.506C107.045 19.0087 106.49 19.26 106.04 19.26C105.052 19.26 104.558 18.6447 104.558 17.414C104.558 16.7207 104.592 16.01 104.662 15.282C104.211 16.0447 103.422 16.9027 102.296 17.856C101.186 18.8093 100.224 19.286 99.4095 19.286ZM98.0055 15.62C98.0055 16.296 98.2915 16.8853 98.8635 17.388C99.4355 17.8907 100.051 18.142 100.71 18.142C101.368 18.142 102.166 17.7 103.102 16.816C104.038 15.9147 104.575 15.204 104.714 14.684C104.818 13.332 104.87 12.084 104.87 10.94V10.394L102.738 11.304C100.814 12.1187 99.5395 12.8033 98.9155 13.358C98.3088 13.9127 98.0055 14.6667 98.0055 15.62Z" fill="#F2F2F2"/>
</svg>
